<svg width="16" height="16" viewBox="0 0 16 16" fill="none" xmlns="http://www.w3.org/2000/svg">
<path fill-rule="evenodd" clip-rule="evenodd" d="M7.99996 15.3333C3.94987 15.3333 0.666626 12.0501 0.666626 7.99999C0.666626 3.9499 3.94987 0.666656 7.99996 0.666656C12.05 0.666656 15.3333 3.9499 15.3333 7.99999C15.3333 12.0501 12.05 15.3333 7.99996 15.3333ZM7.99996 14C11.3137 14 14 11.3137 14 7.99999C14 4.68628 11.3137 1.99999 7.99996 1.99999C4.68625 1.99999 1.99996 4.68628 1.99996 7.99999C1.99996 11.3137 4.68625 14 7.99996 14ZM8.19517 11.1381L9.13798 10.1952L6.94272 7.99999L9.13798 5.80472L8.19517 4.86191L5.0571 7.99999L8.19517 11.1381Z" fill="#97979D"/>
</svg>
