<svg width="8" height="10" viewBox="0 0 8 10" fill="none" xmlns="http://www.w3.org/2000/svg">
<path d="M6.69476 6.07285C6.8982 5.86942 7.21847 5.86942 7.42191 6.07285C7.61847 6.27629 7.61847 6.59656 7.42191 6.8L4.37494 9.84742C4.28056 9.94181 4.14952 10 4.00427 10C3.85902 10 3.72798 9.94181 3.63314 9.84742L0.586171 6.8C0.382735 6.59656 0.382735 6.27629 0.586171 6.07285C0.789607 5.86942 1.10988 5.86942 1.31332 6.07285L3.48789 8.25475V0.509049C3.48743 0.22543 3.72019 0 4.00381 0C4.28743 0 4.51286 0.22543 4.51286 0.509049V8.2543L6.69476 6.07285Z" fill="white"/>
</svg>
