<svg width="20" height="21" viewBox="0 0 20 21" fill="none" xmlns="http://www.w3.org/2000/svg">
<path d="M19.102 14.9066V17.6318C19.103 17.8848 19.0511 18.1352 18.9495 18.367C18.848 18.5988 18.699 18.8069 18.5123 18.9779C18.3255 19.1489 18.1049 19.2791 17.8648 19.3602C17.6247 19.4412 17.3702 19.4713 17.1178 19.4486C14.317 19.1448 11.6266 18.1897 9.26282 16.6598C7.06364 15.2651 5.19912 13.4043 3.80167 11.2095C2.26343 8.83969 1.30615 6.14159 1.00739 3.33377C0.984643 3.08257 1.01456 2.82939 1.09522 2.59036C1.17589 2.35134 1.30554 2.13169 1.47592 1.94541C1.64631 1.75912 1.85369 1.61029 2.08486 1.50838C2.31604 1.40647 2.56594 1.35372 2.81867 1.35348H5.54924C5.99096 1.34914 6.41919 1.50525 6.75412 1.79272C7.08904 2.08018 7.3078 2.47938 7.36962 2.91591C7.48487 3.78802 7.69861 4.64432 8.00676 5.46848C8.12922 5.79361 8.15572 6.14697 8.08313 6.48667C8.01054 6.82638 7.84189 7.1382 7.59717 7.38518L6.44123 8.53883C7.73694 10.813 9.62367 12.696 11.9024 13.9892L13.0583 12.8355C13.3058 12.5913 13.6182 12.423 13.9586 12.3505C14.299 12.2781 14.653 12.3045 14.9788 12.4267C15.8046 12.7343 16.6626 12.9476 17.5365 13.0626C17.9786 13.1249 18.3824 13.3471 18.671 13.6871C18.9597 14.0271 19.1131 14.4611 19.102 14.9066Z" stroke="#36DA33" stroke-width="1.13141" stroke-linecap="round" stroke-linejoin="round"/>
</svg>
