<svg width="14" height="14" viewBox="0 0 14 14" fill="none" xmlns="http://www.w3.org/2000/svg">
<path fill-rule="evenodd" clip-rule="evenodd" d="M13.6668 12.3333V7.66668H12.3335V12.3333H1.66683V1.66668H6.3335V0.333344H1.66683C0.93045 0.333344 0.333496 0.930297 0.333496 1.66668V12.3333C0.333496 13.0697 0.93045 13.6667 1.66683 13.6667H12.3335C13.0699 13.6667 13.6668 13.0697 13.6668 12.3333ZM11.7856 0.815625C11.48 0.507623 11.0616 0.333344 10.6251 0.333344C10.1891 0.333344 9.77109 0.50723 9.46375 0.816429L3.88449 6.39562C3.38594 6.8349 3.05912 7.48857 3.00233 8.19154L3.00016 10.3349V11.0016H5.75656C6.51276 10.9497 7.17285 10.6197 7.6385 10.0825L13.1862 4.53723C13.494 4.22945 13.6669 3.812 13.6669 3.37673C13.6669 2.94146 13.494 2.52401 13.1862 2.21622L11.7856 0.815625ZM5.70948 9.66989C6.06563 9.64468 6.39715 9.47893 6.66336 9.17443L10.7046 5.13318L8.86841 3.29688L4.79756 7.3664C4.52746 7.60529 4.36037 7.9395 4.3335 8.24523V9.66864L5.70948 9.66989ZM9.81138 2.35422L11.6474 4.19037L12.2434 3.59442C12.3011 3.53669 12.3335 3.45838 12.3335 3.37673C12.3335 3.29508 12.3011 3.21677 12.2434 3.15903L10.8409 1.75658C10.7838 1.69904 10.7061 1.66668 10.6251 1.66668C10.544 1.66668 10.4663 1.69904 10.4092 1.75658L9.81138 2.35422Z" fill="white"/>
</svg>
