<svg width="16" height="18" viewBox="0 0 16 18" fill="none" xmlns="http://www.w3.org/2000/svg">
<path d="M2.23096 3.46155L3.00019 15.7692C3.03673 16.4804 3.55403 17 4.23096 17H11.3079C11.9875 17 12.4952 16.4804 12.5386 15.7692L13.3079 3.46155" stroke="#731515" stroke-linecap="round" stroke-linejoin="round"/>
<path d="M1 3.46155H14.5385" stroke="#731515" stroke-miterlimit="10" stroke-linecap="round"/>
<path d="M5.30762 3.46154V1.92308C5.30727 1.80176 5.3309 1.68157 5.37716 1.56941C5.42343 1.45726 5.49141 1.35536 5.57719 1.26957C5.66298 1.18379 5.76488 1.11581 5.87703 1.06955C5.98918 1.02328 6.10938 0.999649 6.2307 1H9.30762C9.42894 0.999649 9.54913 1.02328 9.66129 1.06955C9.77344 1.11581 9.87534 1.18379 9.96113 1.26957C10.0469 1.35536 10.1149 1.45726 10.1612 1.56941C10.2074 1.68157 10.2311 1.80176 10.2307 1.92308V3.46154" stroke="#731515" stroke-linecap="round" stroke-linejoin="round"/>
<path d="M7.76904 5.92307V14.5384" stroke="#731515" stroke-linecap="round" stroke-linejoin="round"/>
<path d="M5 5.92307L5.30769 14.5384" stroke="#731515" stroke-linecap="round" stroke-linejoin="round"/>
<path d="M10.5386 5.92307L10.231 14.5384" stroke="#731515" stroke-linecap="round" stroke-linejoin="round"/>
</svg>
