<svg height="512pt" viewBox="-1 0 512 512" width="512pt" xmlns="http://www.w3.org/2000/svg"><path d="m326.628906 176.191406c4.277344 0 7.746094-3.472656 7.730469-7.753906l-.265625-139.9375c-.019531-6.847656 5.5-12.421875 12.378906-12.4375l148.730469-.601562c4.269531-.015626 7.714844-3.492188 7.699219-7.761719-.015625-4.203125-3.410156-7.699219-7.761719-7.699219l-148.722656.597656c-15.398438.042969-27.828125 12.542969-27.785157 27.945313l.265626 139.9375c.011718 4.261719 3.472656 7.710937 7.730468 7.710937zm0 0" fill="#c0dbff"/><g fill="#81b8fd"><path d="m495.171875 39.5h-130.917969c-4.269531 0-7.730468 3.460938-7.730468 7.730469s3.460937 7.730469 7.730468 7.730469h130.917969c4.269531 0 7.730469-3.460938 7.730469-7.730469s-3.460938-7.730469-7.730469-7.730469zm0 0"/><path d="m446.722656 86.570312h-82.46875c-4.269531 0-7.730468 3.460938-7.730468 7.730469s3.460937 7.734375 7.730468 7.734375h82.46875c4.269532 0 7.730469-3.464844 7.730469-7.734375s-3.460937-7.730469-7.730469-7.730469zm0 0"/><path d="m495.171875 86.570312h-17.523437c-4.269532 0-7.734376 3.460938-7.734376 7.730469s3.464844 7.734375 7.734376 7.734375h17.523437c4.269531 0 7.730469-3.464844 7.730469-7.734375s-3.460938-7.730469-7.730469-7.730469zm0 0"/></g><path d="m150.066406 333.175781c-4.269531 0-7.730468 3.460938-7.730468 7.730469v144.171875c0 6.320313-5.140626 11.460937-11.457032 11.460937h-123.148437c-4.269531 0-7.730469 3.460938-7.730469 7.730469s3.460938 7.730469 7.730469 7.730469h123.148437c14.84375 0 26.921875-12.074219 26.921875-26.921875v-144.171875c0-4.269531-3.460937-7.730469-7.734375-7.730469zm0 0" fill="#c0dbff"/><path d="m7.730469 478.886719h111.300781c4.269531 0 7.734375-3.460938 7.734375-7.730469s-3.464844-7.730469-7.734375-7.730469h-111.300781c-4.269531 0-7.730469 3.460938-7.730469 7.730469s3.460938 7.730469 7.730469 7.730469zm0 0" fill="#81b8fd"/><path d="m7.730469 443.835938h111.300781c4.269531 0 7.734375-3.460938 7.734375-7.730469s-3.464844-7.730469-7.734375-7.730469h-111.300781c-4.269531 0-7.730469 3.460938-7.730469 7.730469s3.460938 7.730469 7.730469 7.730469zm0 0" fill="#81b8fd"/><path d="m76.804688 408.789062h42.226562c4.269531 0 7.734375-3.464843 7.734375-7.734374 0-4.269532-3.464844-7.730469-7.734375-7.730469h-42.226562c-4.269532 0-7.730469 3.460937-7.730469 7.730469 0 4.269531 3.460937 7.734374 7.730469 7.734374zm0 0" fill="#81b8fd"/><path d="m4.3125 240.601562c43.757812-48.273437 247.296875-242.617187 500.605469-.640624 6.242187 5.960937 6.222656 15.933593.011719 21.929687-52.609376 50.769531-284.625 247.238281-500.816407-1.109375-5.046875-5.800781-4.964843-14.484375.199219-20.179688zm0 0" fill="#fff5f4"/><path d="m368.019531 355.015625c-98.929687 43.65625-234.257812 54.695313-363.902343-94.238281-5.050782-5.792969-4.96875-14.484375.195312-20.175782 26.335938-29.046874 110.523438-110.996093 228.617188-118.925781-91.175782 22.277344-155.296876 82.527344-177.664063 106.195313-5.152344 5.464844-5.238281 13.792968-.195313 19.351562 108.566407 119.59375 221.121094 131.625 312.949219 107.792969zm0 0" fill="#ebe0da"/><path d="m374.285156 198.042969c-30-65.886719-107.726562-94.976563-173.613281-64.976563-65.882813 30-94.976563 107.730469-64.976563 173.613282 30 65.886718 107.730469 94.976562 173.613282 64.976562 65.886718-30 94.976562-107.730469 64.976562-173.613281zm0 0" fill="#81b8fd"/><path d="m273.101562 382.21875c-55.996093 7.832031-112.785156-21.453125-137.410156-75.539062-29.996094-65.878907-.90625-143.617188 64.984375-173.613282 23.492188-10.6875 48.476563-13.875 72.28125-10.554687-12.214843 1.699219-24.402343 5.183593-36.203125 10.554687-65.890625 29.996094-94.980468 107.734375-64.984375 173.613282 19.296875 42.398437 58.367188 69.558593 101.332031 75.539062zm0 0" fill="#62a6fd"/><path d="m360.753906 226.25-45.886718-13.398438c-4.097657-1.195312-8.390626 1.15625-9.589844 5.253907-1.195313 4.097656 1.15625 8.390625 5.253906 9.589843l24.925781 7.277344-72.738281 30.046875v-31.234375c0-5.71875-6.007812-9.449218-11.125-6.945312l-103.597656 50.675781c-7.351563 3.597656-4.738282 14.675781 3.402344 14.675781 2.570312 0-3.984376 2.820313 95.859374-46.015625v30.402344c0 5.488281 5.589844 9.246094 10.683594 7.144531l84.339844-34.835937-11.605469 23.0625c-2.59375 5.160156 1.195313 11.207031 6.902344 11.207031 2.828125 0 5.554687-1.558594 6.914063-4.257812l20.570312-40.890626c2.785156-4.28125.78125-10.269531-4.308594-11.757812zm0 0" fill="#c0dbff"/></svg>