<svg id="Layer_1" height="512" viewBox="0 0 512 512" width="512" xmlns="http://www.w3.org/2000/svg" xmlns:xlink="http://www.w3.org/1999/xlink" data-name="Layer 1"><linearGradient id="linear-gradient" gradientUnits="userSpaceOnUse" x1="355.097" x2="355.097" y1="467" y2="45.1"><stop offset=".322" stop-color="#a163f5"/><stop offset=".466" stop-color="#b074ee"/><stop offset=".752" stop-color="#d8a1dd"/><stop offset=".898" stop-color="#efbad3"/></linearGradient><linearGradient id="linear-gradient-2" x1="254.069" x2="254.069" xlink:href="#linear-gradient" y1="467" y2="45.1"/><linearGradient id="linear-gradient-3" x1="331.019" x2="331.019" xlink:href="#linear-gradient" y1="467" y2="45.1"/><path d="m389.3 58.5c-28.868-28.371-66.685-44-106.484-44a6 6 0 0 0 -6 6v144.554a6 6 0 0 0 6 6h144.558a6 6 0 0 0 6-6c0-39.8-15.625-77.616-44-106.485zm14.985 39.97-60.585 60.584h-46.849l87.9-87.9a142.7 142.7 0 0 1 19.534 27.316zm-115.465 4.792 59.993-59.992a142.624 142.624 0 0 1 27.434 19.417l-87.427 87.428zm48.567-65.536-48.567 48.567v-59.664a137.795 137.795 0 0 1 48.567 11.097zm23.284 121.328 49.2-49.2a137.819 137.819 0 0 1 11.369 49.205z" fill="url(#linear-gradient)"/><path d="m398.634 228.076a97.356 97.356 0 0 0 -111.66-16.293h-51.79v-138.549a6 6 0 0 0 -6-6 149.65 149.65 0 0 0 -106.565 44.066c-28.369 28.87-43.993 66.686-43.993 106.483 0 83.018 67.541 150.558 150.558 150.558a153.485 153.485 0 0 0 28.643-2.687q2.75 3.065 5.743 5.895a55.122 55.122 0 0 1 16.334 47.61l-.98 7.523a7.345 7.345 0 0 0 1.261 5.9 7.907 7.907 0 0 0 3.75 2.819v37.305a24.819 24.819 0 0 0 24.791 24.794h44.6a24.819 24.819 0 0 0 24.791-24.791v-37.62a8.335 8.335 0 0 0 4.826-7.768c0-.055 0-.111-.006-.168l-.685-13.012v-.031c-.945-16.362 4.99-31.871 16.27-42.541 1.378-1.3 2.737-2.652 4.037-4.025a98.675 98.675 0 0 0 -3.921-139.468zm-169.45 128.265c-76.4 0-138.558-62.156-138.558-138.558 0-36.631 14.4-71.461 40.515-98.034a137.556 137.556 0 0 1 92.043-40.389v138.423a6 6 0 0 0 6 6h39.516c-21.142 17.443-35.055 43.332-36.1 71.954a98.5 98.5 0 0 0 16.831 59.147 142.08 142.08 0 0 1 -20.247 1.457zm66.751 79.524h70.179v17.635h-70.179zm57.388 49.635h-44.6a12.8 12.8 0 0 1 -12.791-12.791v-7.2h70.179v7.2a12.805 12.805 0 0 1 -12.788 12.791zm58.708-155.354a86.011 86.011 0 0 1 -18.19 29.148c-1.143 1.206-2.336 2.4-3.559 3.547-13.866 13.116-21.161 32.052-20.015 51.953l.477 9.071h-79.352l.4-3.1a67.135 67.135 0 0 0 -19.978-57.937 86.747 86.747 0 0 1 -27.214-66.634c1.591-43.616 37.184-80.039 80.981-82.917a86.694 86.694 0 0 1 86.454 116.869z" fill="url(#linear-gradient-2)"/><path d="m365.9 299.782h-21l-.553-56.919a6 6 0 0 0 -11.5-2.331l-42.22 97.261a6 6 0 0 0 5.5 8.389h21l.548 56.922a6 6 0 0 0 4.808 5.824 6.075 6.075 0 0 0 1.194.12 6 6 0 0 0 5.5-3.611l42.224-97.265a6 6 0 0 0 -5.5-8.39zm-36.5 75-.334-34.661a6 6 0 0 0 -6-5.942h-17.785l27.348-63 .336 34.66a6 6 0 0 0 6 5.941h17.792z" fill="url(#linear-gradient-3)"/></svg>