<svg id="icons" enable-background="new 0 0 64 64" height="512" viewBox="0 0 64 64" width="512" xmlns="http://www.w3.org/2000/svg"><path d="m5 57h33.996c2.757 0 5-2.243 5-5v-6.004-27.992-6.004c0-2.757-2.243-5-5-5h-33.996c-2.757 0-5 2.243-5 5v6.004 27.992 6.004c0 2.757 2.243 5 5 5zm33.996-2h-33.996c-1.654 0-3-1.346-3-3v-2.029c.838.635 1.87 1.025 3 1.025h33.996c1.13 0 2.162-.391 3-1.025v2.029c0 1.654-1.346 3-3 3zm-36.996-43c0-1.654 1.346-3 3-3h33.996c1.654 0 3 1.346 3 3v6.004 27.992c0 1.654-1.346 3-3 3h-33.996c-1.654 0-3-1.346-3-3v-27.992z"/><path d="m12 35h5.001v.999h-.998c-.553 0-1 .447-1 1s.447 1 1 1h9.983.003 1.999c.553 0 1-.447 1-1s-.447-1-1-1h-.996l.002-.999h5.006c.553 0 1-.447 1-1v-10.998c0-.553-.447-1-1-1h-20c-.553 0-1 .447-1 1v10.998c0 .553.447 1 1 1zm12.992.999h-5.991v-.999h5.993zm-11.992-11.997h18v8.998h-18z"/><path d="m11.002 51.998h-4c-.553 0-1 .447-1 1s.447 1 1 1h4c.553 0 1-.447 1-1s-.447-1-1-1z"/><path d="m19.004 51.998h-4c-.553 0-1 .447-1 1s.447 1 1 1h4c.553 0 1-.447 1-1s-.447-1-1-1z"/><path d="m37.021 51.998h-4c-.553 0-1 .447-1 1s.447 1 1 1h4c.553 0 1-.447 1-1s-.447-1-1-1z"/><path d="m61 7h-12c-1.654 0-3 1.346-3 3v44c0 1.654 1.346 3 3 3h12c1.654 0 3-1.346 3-3v-44c0-1.654-1.346-3-3-3zm-13 3c0-.552.448-1 1-1h12c.552 0 1 .448 1 1v40.003c0 .552-.448 1-1 1h-12c-.552 0-1-.448-1-1zm13 45h-12c-.552 0-1-.448-1-1v-1.182c.314.112.647.185 1 .185h12c.353 0 .686-.072 1-.185v1.182c0 .552-.448 1-1 1z"/><path d="m58.008 16c1.654 0 3-1.346 3-3s-1.346-3-3-3-3 1.346-3 3 1.346 3 3 3zm0-4c.552 0 1 .448 1 1s-.448 1-1 1-1-.448-1-1 .448-1 1-1z"/><path d="m51.025 24.004c.552 0 1-.447 1-1s-.448-1-1-1h-.011c-.552 0-.994.447-.994 1s.453 1 1.005 1z"/><path d="m55.028 24.004c.552 0 1-.447 1-1s-.448-1-1-1h-.011c-.552 0-.994.447-.994 1s.453 1 1.005 1z"/><path d="m59.031 22.004h-.011c-.552 0-.994.447-.994 1s.452 1 1.005 1c.552 0 1-.447 1-1s-.448-1-1-1z"/><path d="m51.025 28c.552 0 1-.447 1-1s-.448-1-1-1h-.011c-.552 0-.994.447-.994 1s.453 1 1.005 1z"/><path d="m55.028 28c.552 0 1-.447 1-1s-.448-1-1-1h-.011c-.552 0-.994.447-.994 1s.453 1 1.005 1z"/><path d="m59.031 26h-.011c-.552 0-.994.447-.994 1s.452 1 1.005 1c.552 0 1-.447 1-1s-.448-1-1-1z"/><path d="m51.025 31.996c.552 0 1-.447 1-1s-.448-1-1-1h-.011c-.552 0-.994.447-.994 1s.453 1 1.005 1z"/><path d="m55.028 31.996c.552 0 1-.447 1-1s-.448-1-1-1h-.011c-.552 0-.994.447-.994 1s.453 1 1.005 1z"/><path d="m59.031 29.996h-.011c-.552 0-.994.447-.994 1s.452 1 1.005 1c.552 0 1-.447 1-1s-.448-1-1-1z"/><path d="m51.025 35.992c.552 0 1-.447 1-1s-.448-1-1-1h-.011c-.552 0-.994.447-.994 1s.453 1 1.005 1z"/><path d="m59.031 33.992h-.011c-.552 0-.994.447-.994 1s.452 1 1.005 1c.552 0 1-.447 1-1s-.448-1-1-1z"/><path d="m52.001 42.001c-.553 0-1 .447-1 1s.447 1 1 1h1.998v2c0 .553.447 1 1 1s1-.447 1-1v-2h2c.553 0 1-.447 1-1s-.447-1-1-1h-2v-2c0-.553-.447-1-1-1s-1 .447-1 1v2z"/></svg>