<svg width="16" height="16" viewBox="0 0 16 16" fill="none" xmlns="http://www.w3.org/2000/svg">
<circle opacity="0.4" cx="8" cy="8" r="8" fill="#FDA0A0"/>
<path d="M10.8671 5.13745C10.825 5.09526 10.775 5.06179 10.7199 5.03895C10.6649 5.01611 10.6059 5.00436 10.5463 5.00436C10.4867 5.00436 10.4276 5.01611 10.3726 5.03895C10.3175 5.06179 10.2675 5.09526 10.2254 5.13745L8 7.35832L5.77458 5.1329C5.73245 5.09076 5.68243 5.05734 5.62738 5.03454C5.57233 5.01174 5.51333 5 5.45374 5C5.39415 5 5.33515 5.01174 5.2801 5.03454C5.22505 5.05734 5.17503 5.09076 5.1329 5.1329C5.09076 5.17503 5.05734 5.22505 5.03454 5.2801C5.01174 5.33515 5 5.39415 5 5.45374C5 5.51333 5.01174 5.57233 5.03454 5.62738C5.05734 5.68243 5.09076 5.73245 5.1329 5.77458L7.35832 8L5.1329 10.2254C5.09076 10.2676 5.05734 10.3176 5.03454 10.3726C5.01174 10.4277 5 10.4867 5 10.5463C5 10.6058 5.01174 10.6648 5.03454 10.7199C5.05734 10.7749 5.09076 10.825 5.1329 10.8671C5.17503 10.9092 5.22505 10.9427 5.2801 10.9655C5.33515 10.9883 5.39415 11 5.45374 11C5.51333 11 5.57233 10.9883 5.62738 10.9655C5.68243 10.9427 5.73245 10.9092 5.77458 10.8671L8 8.64169L10.2254 10.8671C10.2676 10.9092 10.3176 10.9427 10.3726 10.9655C10.4277 10.9883 10.4867 11 10.5463 11C10.6058 11 10.6648 10.9883 10.7199 10.9655C10.7749 10.9427 10.825 10.9092 10.8671 10.8671C10.9092 10.825 10.9427 10.7749 10.9655 10.7199C10.9883 10.6648 11 10.6058 11 10.5463C11 10.4867 10.9883 10.4277 10.9655 10.3726C10.9427 10.3176 10.9092 10.2676 10.8671 10.2254L8.64169 8L10.8671 5.77458C11.04 5.60165 11.04 5.31038 10.8671 5.13745Z" fill="#731515"/>
</svg>
